<svg width="20" height="20" viewBox="0 0 20 20" fill="none" xmlns="http://www.w3.org/2000/svg">
<path d="M14.197 4.85714H15.4827M5.83988 1H13.5542C16.3945 1 18.697 3.30254 18.697 6.14286V13.8571C18.697 16.6975 16.3945 19 13.5542 19H5.83988C2.99956 19 0.697021 16.6975 0.697021 13.8571V6.14286C0.697021 3.30254 2.99956 1 5.83988 1ZM9.69702 13.8571C7.56678 13.8571 5.83988 12.1302 5.83988 10C5.83988 7.86976 7.56678 6.14286 9.69702 6.14286C11.8273 6.14286 13.5542 7.86976 13.5542 10C13.5542 12.1302 11.8273 13.8571 9.69702 13.8571Z" stroke="black"></path>
</svg>
