<svg width="20" height="20" viewBox="0 0 20 20" fill="none" xmlns="http://www.w3.org/2000/svg">
<path d="M6.12174 1H3.26845C1.84829 1 0.697021 2.15127 0.697021 3.57143V6.14286C0.697021 13.2437 6.45336 19 13.5542 19H16.1256C17.5458 19 18.697 17.8487 18.697 16.4286V14.6518C18.697 14.1648 18.4219 13.7196 17.9863 13.5018L14.8801 11.9487C14.1803 11.5988 13.3328 11.9498 13.0854 12.6921L12.7025 13.8406C12.4545 14.5846 11.6914 15.0274 10.9224 14.8737C7.84468 14.2581 5.43892 11.8523 4.82337 8.7746C4.66958 8.00563 5.11245 7.24248 5.85641 6.99449L7.28179 6.51936C7.91915 6.30691 8.28548 5.63957 8.12254 4.98779L7.36906 1.97388C7.22597 1.40153 6.71171 1 6.12174 1Z" stroke="black"></path>
</svg>
